<svg width="307" height="24" viewBox="0 0 307 24" fill="none" xmlns="http://www.w3.org/2000/svg">
<path d="M5.4221 11.9539C4.66368 10.6314 4.29748 9.55158 4.07667 8.45697C3.7501 6.83806 4.49745 5.25665 5.7355 4.24758C6.25876 3.82111 6.85858 3.96681 7.168 4.52192L7.86655 5.77513C8.42023 6.76845 8.69707 7.26511 8.64216 7.79167C8.58725 8.31823 8.21389 8.74709 7.46718 9.6048L5.4221 11.9539ZM5.4221 11.9539C6.9572 14.6306 9.36627 17.041 12.0461 18.5779M12.0461 18.5779C13.3686 19.3363 14.4484 19.7025 15.543 19.9233C17.1619 20.2499 18.7434 19.5026 19.7524 18.2645C20.1789 17.7412 20.0332 17.1414 19.4781 16.832L18.2249 16.1335C17.2315 15.5798 16.7349 15.3029 16.2083 15.3578C15.6818 15.4127 15.2529 15.7861 14.3952 16.5328L12.0461 18.5779Z" stroke="#585858" stroke-width="1.2" stroke-linejoin="round"/>
<path d="M35.08 20.216C34.5667 19.3667 34.1653 18.3867 33.876 17.276C33.596 16.156 33.456 14.952 33.456 13.664C33.456 12.376 33.596 11.172 33.876 10.052C34.1653 8.92267 34.5667 7.94267 35.08 7.112H36.032C35.4813 8.07333 35.0753 9.09533 34.814 10.178C34.562 11.2513 34.436 12.4133 34.436 13.664C34.436 14.9147 34.562 16.0813 34.814 17.164C35.0753 18.2373 35.4813 19.2547 36.032 20.216H35.08ZM37.1534 17.5V16.786L41.2274 12.796C41.6008 12.432 41.8808 12.1147 42.0674 11.844C42.2541 11.564 42.3801 11.3027 42.4454 11.06C42.5108 10.8173 42.5434 10.5887 42.5434 10.374C42.5434 9.80467 42.3474 9.35667 41.9554 9.03C41.5728 8.70333 41.0034 8.54 40.2474 8.54C39.6688 8.54 39.1554 8.62867 38.7074 8.806C38.2688 8.98333 37.8908 9.25867 37.5734 9.632L36.8594 9.016C37.2421 8.568 37.7321 8.22267 38.3294 7.98C38.9268 7.73733 39.5941 7.616 40.3314 7.616C40.9941 7.616 41.5681 7.72333 42.0534 7.938C42.5388 8.14333 42.9121 8.44667 43.1734 8.848C43.4441 9.24933 43.5794 9.72067 43.5794 10.262C43.5794 10.5793 43.5328 10.892 43.4394 11.2C43.3554 11.508 43.1968 11.8347 42.9634 12.18C42.7394 12.516 42.4081 12.8987 41.9694 13.328L38.2314 16.996L37.9514 16.604H44.0274V17.5H37.1534ZM45.1105 17.5V16.786L49.1845 12.796C49.5578 12.432 49.8378 12.1147 50.0245 11.844C50.2111 11.564 50.3371 11.3027 50.4025 11.06C50.4678 10.8173 50.5005 10.5887 50.5005 10.374C50.5005 9.80467 50.3045 9.35667 49.9125 9.03C49.5298 8.70333 48.9605 8.54 48.2045 8.54C47.6258 8.54 47.1125 8.62867 46.6645 8.806C46.2258 8.98333 45.8478 9.25867 45.5305 9.632L44.8165 9.016C45.1991 8.568 45.6891 8.22267 46.2865 7.98C46.8838 7.73733 47.5511 7.616 48.2885 7.616C48.9511 7.616 49.5251 7.72333 50.0105 7.938C50.4958 8.14333 50.8691 8.44667 51.1305 8.848C51.4011 9.24933 51.5365 9.72067 51.5365 10.262C51.5365 10.5793 51.4898 10.892 51.3965 11.2C51.3125 11.508 51.1538 11.8347 50.9205 12.18C50.6965 12.516 50.3651 12.8987 49.9265 13.328L46.1885 16.996L45.9085 16.604H51.9845V17.5H45.1105ZM56.3015 7.616C57.1695 7.616 57.9022 7.812 58.4995 8.204C59.0968 8.58667 59.5495 9.142 59.8575 9.87C60.1655 10.598 60.3195 11.48 60.3195 12.516C60.3195 13.6173 60.1282 14.546 59.7455 15.302C59.3722 16.058 58.8495 16.6273 58.1775 17.01C57.5055 17.3927 56.7262 17.584 55.8395 17.584C55.4008 17.584 54.9808 17.542 54.5795 17.458C54.1875 17.374 53.8328 17.2387 53.5155 17.052L53.9215 16.24C54.1735 16.408 54.4628 16.5293 54.7895 16.604C55.1255 16.6693 55.4708 16.702 55.8255 16.702C56.8802 16.702 57.7202 16.366 58.3455 15.694C58.9802 15.022 59.2975 14.0187 59.2975 12.684C59.2975 12.4693 59.2835 12.2127 59.2555 11.914C59.2368 11.6153 59.1855 11.3167 59.1015 11.018L59.4515 11.284C59.3582 11.7693 59.1575 12.1847 58.8495 12.53C58.5508 12.866 58.1775 13.1227 57.7295 13.3C57.2908 13.4773 56.8008 13.566 56.2595 13.566C55.6155 13.566 55.0415 13.4447 54.5375 13.202C54.0428 12.9593 53.6555 12.6187 53.3755 12.18C53.0955 11.7413 52.9555 11.2233 52.9555 10.626C52.9555 10.01 53.1002 9.478 53.3895 9.03C53.6788 8.582 54.0755 8.23667 54.5795 7.994C55.0928 7.742 55.6668 7.616 56.3015 7.616ZM56.3435 8.47C55.8768 8.47 55.4615 8.55867 55.0975 8.736C54.7428 8.904 54.4628 9.14667 54.2575 9.464C54.0522 9.78133 53.9495 10.1593 53.9495 10.598C53.9495 11.242 54.1688 11.7553 54.6075 12.138C55.0555 12.5207 55.6575 12.712 56.4135 12.712C56.9175 12.712 57.3562 12.6187 57.7295 12.432C58.1122 12.2453 58.4062 11.9887 58.6115 11.662C58.8262 11.3353 58.9335 10.9713 58.9335 10.57C58.9335 10.206 58.8355 9.86533 58.6395 9.548C58.4435 9.23067 58.1542 8.974 57.7715 8.778C57.3888 8.57267 56.9128 8.47 56.3435 8.47ZM62.5647 20.216H61.6127C62.1727 19.2547 62.5787 18.2373 62.8307 17.164C63.0921 16.0813 63.2227 14.9147 63.2227 13.664C63.2227 12.4133 63.0921 11.2513 62.8307 10.178C62.5787 9.09533 62.1727 8.07333 61.6127 7.112H62.5647C63.0967 7.94267 63.5027 8.92267 63.7827 10.052C64.0627 11.172 64.2027 12.376 64.2027 13.664C64.2027 14.952 64.0627 16.156 63.7827 17.276C63.5027 18.3867 63.0967 19.3667 62.5647 20.216ZM73.1462 17.584C72.4462 17.584 71.7789 17.472 71.1442 17.248C70.5096 17.0147 70.0056 16.7067 69.6322 16.324L70.1222 15.526C70.4302 15.8527 70.8502 16.1233 71.3822 16.338C71.9236 16.5527 72.5069 16.66 73.1322 16.66C73.9629 16.66 74.5929 16.478 75.0222 16.114C75.4609 15.7407 75.6802 15.2553 75.6802 14.658C75.6802 14.238 75.5776 13.8787 75.3722 13.58C75.1762 13.272 74.8402 13.034 74.3642 12.866C73.8882 12.698 73.2349 12.614 72.4042 12.614H70.3182L70.8222 7.7H76.1842V8.596H71.2282L71.7462 8.106L71.3122 12.222L70.7942 11.718H72.6282C73.6176 11.718 74.4109 11.8393 75.0082 12.082C75.6056 12.3247 76.0349 12.6653 76.2962 13.104C76.5669 13.5333 76.7022 14.0373 76.7022 14.616C76.7022 15.1667 76.5716 15.6707 76.3102 16.128C76.0489 16.576 75.6569 16.9307 75.1342 17.192C74.6116 17.4533 73.9489 17.584 73.1462 17.584ZM81.0075 17.584C80.3075 17.584 79.6402 17.472 79.0055 17.248C78.3709 17.0147 77.8669 16.7067 77.4935 16.324L77.9835 15.526C78.2915 15.8527 78.7115 16.1233 79.2435 16.338C79.7849 16.5527 80.3682 16.66 80.9935 16.66C81.8242 16.66 82.4542 16.478 82.8835 16.114C83.3222 15.7407 83.5415 15.2553 83.5415 14.658C83.5415 14.238 83.4389 13.8787 83.2335 13.58C83.0375 13.272 82.7015 13.034 82.2255 12.866C81.7495 12.698 81.0962 12.614 80.2655 12.614H78.1795L78.6835 7.7H84.0455V8.596H79.0895L79.6075 8.106L79.1735 12.222L78.6555 11.718H80.4895C81.4789 11.718 82.2722 11.8393 82.8695 12.082C83.4669 12.3247 83.8962 12.6653 84.1575 13.104C84.4282 13.5333 84.5635 14.0373 84.5635 14.616C84.5635 15.1667 84.4329 15.6707 84.1715 16.128C83.9102 16.576 83.5182 16.9307 82.9955 17.192C82.4729 17.4533 81.8102 17.584 81.0075 17.584ZM88.8689 17.584C88.1689 17.584 87.5015 17.472 86.8669 17.248C86.2322 17.0147 85.7282 16.7067 85.3549 16.324L85.8449 15.526C86.1529 15.8527 86.5729 16.1233 87.1049 16.338C87.6462 16.5527 88.2295 16.66 88.8549 16.66C89.6855 16.66 90.3155 16.478 90.7449 16.114C91.1835 15.7407 91.4029 15.2553 91.4029 14.658C91.4029 14.238 91.3002 13.8787 91.0949 13.58C90.8989 13.272 90.5629 13.034 90.0869 12.866C89.6109 12.698 88.9575 12.614 88.1269 12.614H86.0409L86.5449 7.7H91.9069V8.596H86.9509L87.4689 8.106L87.0349 12.222L86.5169 11.718H88.3509C89.3402 11.718 90.1335 11.8393 90.7309 12.082C91.3282 12.3247 91.7575 12.6653 92.0189 13.104C92.2895 13.5333 92.4249 14.0373 92.4249 14.616C92.4249 15.1667 92.2942 15.6707 92.0329 16.128C91.7715 16.576 91.3795 16.9307 90.8569 17.192C90.3342 17.4533 89.6715 17.584 88.8689 17.584ZM93.8166 14.14V13.272H97.4846V14.14H93.8166ZM103.066 17.584C102.31 17.584 101.638 17.388 101.05 16.996C100.462 16.5947 99.9996 16.0253 99.6636 15.288C99.3276 14.5413 99.1596 13.6453 99.1596 12.6C99.1596 11.5547 99.3276 10.6633 99.6636 9.926C99.9996 9.17933 100.462 8.61 101.05 8.218C101.638 7.81667 102.31 7.616 103.066 7.616C103.822 7.616 104.494 7.81667 105.082 8.218C105.67 8.61 106.132 9.17933 106.468 9.926C106.813 10.6633 106.986 11.5547 106.986 12.6C106.986 13.6453 106.813 14.5413 106.468 15.288C106.132 16.0253 105.67 16.5947 105.082 16.996C104.494 17.388 103.822 17.584 103.066 17.584ZM103.066 16.66C103.644 16.66 104.148 16.506 104.578 16.198C105.007 15.8807 105.343 15.4233 105.586 14.826C105.828 14.2193 105.95 13.4773 105.95 12.6C105.95 11.7227 105.828 10.9853 105.586 10.388C105.343 9.78133 105.007 9.324 104.578 9.016C104.148 8.69867 103.644 8.54 103.066 8.54C102.506 8.54 102.006 8.69867 101.568 9.016C101.129 9.324 100.788 9.78133 100.546 10.388C100.303 10.9853 100.182 11.7227 100.182 12.6C100.182 13.4773 100.303 14.2193 100.546 14.826C100.788 15.4233 101.129 15.8807 101.568 16.198C102.006 16.506 102.506 16.66 103.066 16.66ZM110.137 17.5V8.12L110.585 8.596H107.827V7.7H111.145V17.5H110.137ZM117.394 17.584C116.638 17.584 115.966 17.388 115.378 16.996C114.79 16.5947 114.328 16.0253 113.992 15.288C113.656 14.5413 113.488 13.6453 113.488 12.6C113.488 11.5547 113.656 10.6633 113.992 9.926C114.328 9.17933 114.79 8.61 115.378 8.218C115.966 7.81667 116.638 7.616 117.394 7.616C118.15 7.616 118.822 7.81667 119.41 8.218C119.998 8.61 120.46 9.17933 120.796 9.926C121.141 10.6633 121.314 11.5547 121.314 12.6C121.314 13.6453 121.141 14.5413 120.796 15.288C120.46 16.0253 119.998 16.5947 119.41 16.996C118.822 17.388 118.15 17.584 117.394 17.584ZM117.394 16.66C117.972 16.66 118.476 16.506 118.906 16.198C119.335 15.8807 119.671 15.4233 119.914 14.826C120.156 14.2193 120.278 13.4773 120.278 12.6C120.278 11.7227 120.156 10.9853 119.914 10.388C119.671 9.78133 119.335 9.324 118.906 9.016C118.476 8.69867 117.972 8.54 117.394 8.54C116.834 8.54 116.334 8.69867 115.896 9.016C115.457 9.324 115.116 9.78133 114.874 10.388C114.631 10.9853 114.51 11.7227 114.51 12.6C114.51 13.4773 114.631 14.2193 114.874 14.826C115.116 15.4233 115.457 15.8807 115.896 16.198C116.334 16.506 116.834 16.66 117.394 16.66ZM125.809 7.616C126.677 7.616 127.41 7.812 128.007 8.204C128.605 8.58667 129.057 9.142 129.365 9.87C129.673 10.598 129.827 11.48 129.827 12.516C129.827 13.6173 129.636 14.546 129.253 15.302C128.88 16.058 128.357 16.6273 127.685 17.01C127.013 17.3927 126.234 17.584 125.347 17.584C124.909 17.584 124.489 17.542 124.087 17.458C123.695 17.374 123.341 17.2387 123.023 17.052L123.429 16.24C123.681 16.408 123.971 16.5293 124.297 16.604C124.633 16.6693 124.979 16.702 125.333 16.702C126.388 16.702 127.228 16.366 127.853 15.694C128.488 15.022 128.805 14.0187 128.805 12.684C128.805 12.4693 128.791 12.2127 128.763 11.914C128.745 11.6153 128.693 11.3167 128.609 11.018L128.959 11.284C128.866 11.7693 128.665 12.1847 128.357 12.53C128.059 12.866 127.685 13.1227 127.237 13.3C126.799 13.4773 126.309 13.566 125.767 13.566C125.123 13.566 124.549 13.4447 124.045 13.202C123.551 12.9593 123.163 12.6187 122.883 12.18C122.603 11.7413 122.463 11.2233 122.463 10.626C122.463 10.01 122.608 9.478 122.897 9.03C123.187 8.582 123.583 8.23667 124.087 7.994C124.601 7.742 125.175 7.616 125.809 7.616ZM125.851 8.47C125.385 8.47 124.969 8.55867 124.605 8.736C124.251 8.904 123.971 9.14667 123.765 9.464C123.56 9.78133 123.457 10.1593 123.457 10.598C123.457 11.242 123.677 11.7553 124.115 12.138C124.563 12.5207 125.165 12.712 125.921 12.712C126.425 12.712 126.864 12.6187 127.237 12.432C127.62 12.2453 127.914 11.9887 128.119 11.662C128.334 11.3353 128.441 10.9713 128.441 10.57C128.441 10.206 128.343 9.86533 128.147 9.548C127.951 9.23067 127.662 8.974 127.279 8.778C126.897 8.57267 126.421 8.47 125.851 8.47Z" fill="#585858"/>
</svg>
