<svg width="24" height="24" viewBox="0 0 24 24" fill="none" xmlns="http://www.w3.org/2000/svg">
<path d="M7 2.5H17C19.4858 2.5 21.5 4.50857 21.5 6.98047V13.96C21.5 16.4319 19.4858 18.4404 17 18.4404H15.5C15.0314 18.4404 14.5849 18.6647 14.3018 19.0371L14.3008 19.0391L12.8008 21.0293L12.7998 21.0303C12.5504 21.3627 12.2558 21.4902 12 21.4902C11.7442 21.4902 11.4496 21.3627 11.2002 21.0303L11.1992 21.0293L9.69922 19.0391L9.69531 19.0342C9.5525 18.8495 9.35348 18.7065 9.16113 18.6104C8.96958 18.5146 8.73469 18.4404 8.5 18.4404H7C4.51418 18.4404 2.5 16.4319 2.5 13.96V6.98047C2.5 4.50857 4.51418 2.5 7 2.5ZM8 9.5C7.17386 9.5 6.5 10.1739 6.5 11C6.5 11.8229 7.1606 12.5 8 12.5C8.8394 12.5 9.5 11.8229 9.5 11C9.5 10.1739 8.82614 9.5 8 9.5ZM12 9.5C11.1739 9.5 10.5 10.1739 10.5 11C10.5 11.8229 11.1606 12.5 12 12.5C12.8394 12.5 13.5 11.8229 13.5 11C13.5 10.1739 12.8261 9.5 12 9.5ZM16 9.5C15.1739 9.5 14.5 10.1739 14.5 11C14.5 11.8229 15.1606 12.5 16 12.5C16.8394 12.5 17.5 11.8229 17.5 11C17.5 10.1739 16.8261 9.5 16 9.5Z" fill="#035F75" stroke="#035F75"/>
</svg>
