<svg width="40" height="40" viewBox="0 0 40 40" fill="none" xmlns="http://www.w3.org/2000/svg">
<mask id="path-1-inside-1_3768_29185" fill="white">
<path d="M0 20C0 8.95431 8.95431 0 20 0C31.0457 0 40 8.95431 40 20C40 31.0457 31.0457 40 20 40C8.95431 40 0 31.0457 0 20Z"/>
</mask>
<path d="M0 20C0 8.95431 8.95431 0 20 0C31.0457 0 40 8.95431 40 20C40 31.0457 31.0457 40 20 40C8.95431 40 0 31.0457 0 20Z" fill="#F5F5F5"/>
<path d="M0 0H40H0ZM40 21C40 32.0457 31.0457 41 20 41C8.9543 41 0 32.0457 0 21V20C0 30.4934 8.9543 39 20 39C31.0457 39 40 30.4934 40 20V21ZM0 40V0V40ZM40 0V40V0Z" fill="#357F91" mask="url(#path-1-inside-1_3768_29185)"/>
<path d="M29.3599 24.4634L27.9654 23.0427C27.7711 22.8459 27.6624 22.5804 27.6631 22.3039V18.0078C27.6631 14.54 25.3479 11.6033 22.182 10.6611C22.2106 10.5186 22.2256 10.3728 22.2256 10.2266C22.2256 8.99891 21.2267 8 19.999 8C18.7714 8 17.7724 8.99891 17.7724 10.2266C17.7724 10.3742 17.787 10.5195 17.8146 10.6616C14.6496 11.6042 12.3349 14.5405 12.3349 18.0078V22.3039C12.3349 22.5819 12.2276 22.8444 12.0326 23.0427L10.6381 24.4634C9.8637 25.2519 9.64807 26.375 10.076 27.3945C10.5035 28.4136 11.456 29.0469 12.5614 29.0469H16.6718C16.8696 30.7077 18.2857 32 19.999 32C21.7123 32 23.1284 30.7077 23.3262 29.0469H27.4367C28.542 29.0469 29.4945 28.4136 29.922 27.3945C30.3499 26.375 30.1343 25.2519 29.3599 24.4634ZM19.4131 10.2266C19.4131 9.90359 19.676 9.64062 19.999 9.64062C20.322 9.64062 20.5849 9.90359 20.5849 10.2266C20.5849 10.2772 20.5784 10.3227 20.5681 10.3648C20.3801 10.3512 20.1903 10.3438 19.999 10.3438C19.8078 10.3438 19.6179 10.3512 19.4299 10.3648C19.4196 10.3231 19.4131 10.2772 19.4131 10.2266ZM19.999 30.3594C19.1928 30.3594 18.5154 29.7987 18.3354 29.0469H21.6626C21.4826 29.7987 20.8053 30.3594 19.999 30.3594ZM28.4093 26.7598C28.3456 26.9117 28.0873 27.4062 27.4367 27.4062H12.5614C11.9107 27.4062 11.6524 26.9112 11.5887 26.7598C11.5249 26.608 11.3529 26.0773 11.8085 25.6128L13.2035 24.192C13.7014 23.6848 13.9756 23.0145 13.9756 22.3039V18.0078C13.9756 14.6867 16.6774 11.9844 19.999 11.9844C23.3206 11.9844 26.0224 14.6867 26.0224 18.0078V22.3039C26.0224 23.0145 26.2967 23.6848 26.7945 24.192L28.1895 25.6128C28.6451 26.0769 28.4731 26.608 28.4093 26.7598Z" fill="#035F75"/>
</svg>
