<svg width="25" height="25" viewBox="0 0 25 25" fill="none" xmlns="http://www.w3.org/2000/svg">
<path d="M12.248 12.6323C13.3363 12.7041 14.01 13.2402 14.7197 14.0962C15.0903 14.5431 15.4351 15.0311 15.8682 15.5942C16.2379 16.0749 16.6527 16.5828 17.1504 17.0835L17.3691 17.2983C19.0068 18.8986 19.5805 20.3299 19.5654 21.353C19.5508 22.3445 18.9908 23.0129 18.1455 23.2319L18.1367 23.2338L18.1279 23.2368C17.2878 23.4867 16.4886 23.1449 15.4717 22.6049C14.5178 22.0984 13.3652 21.4077 12.0479 21.4223C10.7226 21.361 9.55485 22.0128 8.58301 22.5083C7.53893 23.0405 6.7195 23.3949 5.87109 23.1606C5.03306 22.929 4.5066 22.2685 4.53027 21.2915C4.55507 20.2742 5.18664 18.8506 6.88867 17.2534C7.52315 16.6695 8.03742 16.0768 8.48828 15.5249C8.94885 14.961 9.31833 14.4727 9.70703 14.0337C10.4512 13.1931 11.1444 12.6794 12.248 12.6323ZM1.12109 7.99068C1.55069 7.66536 2.17307 7.62796 2.91895 7.98092C3.66816 8.33556 4.46845 9.06052 5.1084 10.0981C5.74871 11.1364 6.09189 12.2473 6.1416 13.1889C6.19216 14.147 5.9389 14.8256 5.5293 15.1577C5.09952 15.4854 4.47653 15.5244 3.72852 15.1704C2.97919 14.8157 2.17905 14.091 1.53906 13.0532C0.89875 12.0148 0.555551 10.904 0.505859 9.96236C0.458417 9.06165 0.67892 8.40706 1.0459 8.05611L1.12109 7.99068ZM21.2773 8.38131C22.0723 8.07932 22.7642 8.13542 23.2393 8.47115C23.6707 8.81054 23.9176 9.45296 23.8516 10.3296C23.7858 11.2013 23.4095 12.2285 22.7031 13.1899C21.9971 14.1508 21.1359 14.8021 20.3389 15.1049C19.5348 15.4104 18.8702 15.3419 18.4404 15.0083C18.0049 14.6702 17.7558 14.0251 17.8223 13.144C17.8881 12.2723 18.2634 11.245 18.9697 10.2837L18.9766 10.2758C19.6426 9.32879 20.482 8.68347 21.2773 8.38131ZM7.93945 0.994591C8.49667 0.901125 9.158 1.19405 9.78125 1.94186C10.3949 2.67833 10.8996 3.78257 11.1211 5.07467C11.3413 6.35985 11.2077 7.56014 10.8496 8.45162C10.486 9.35675 9.93575 9.8548 9.37109 9.94967C8.81389 10.0431 8.15253 9.75114 7.5293 9.00338C6.91549 8.26691 6.41094 7.16193 6.18945 5.86959C5.96923 4.58444 6.10285 3.38411 6.46094 2.49264C6.8245 1.58757 7.37485 1.08952 7.93945 0.994591ZM14.8633 2.18893C15.4819 1.53958 16.1276 1.30999 16.6592 1.436L16.6699 1.43893L16.6807 1.44088C17.2141 1.54233 17.717 1.9996 18.0371 2.81783C18.3142 3.52627 18.4283 4.45245 18.2969 5.47115L18.2246 5.91354C17.9849 7.06745 17.4826 8.03772 16.8799 8.67721C16.2726 9.32146 15.6182 9.58152 15.041 9.48385C14.51 9.37995 14.0102 8.92281 13.6914 8.10787C13.3747 7.29814 13.2717 6.20374 13.5039 5.01217C13.7358 3.82222 14.2525 2.83019 14.8633 2.18893Z" stroke="#035F75"/>
</svg>
