<svg width="64" height="64" viewBox="0 0 64 64" fill="none" xmlns="http://www.w3.org/2000/svg">
<path d="M31.9893 58.6663C46.6507 58.6663 58.6465 46.6663 58.6465 31.9997C58.6465 17.333 46.6507 5.33301 31.9893 5.33301C17.3278 5.33301 5.33203 17.333 5.33203 31.9997C5.33203 46.6663 17.3278 58.6663 31.9893 58.6663Z" fill="#ECF9EF"/>
<path d="M31.9893 58.6663C46.6507 58.6663 58.6465 46.6663 58.6465 31.9997C58.6465 17.333 46.6507 5.33301 31.9893 5.33301C17.3278 5.33301 5.33203 17.333 5.33203 31.9997C5.33203 46.6663 17.3278 58.6663 31.9893 58.6663Z" stroke="#0E7A60" stroke-width="1.06667" stroke-linecap="round" stroke-linejoin="round"/>
<path d="M28.2511 43.1987L27.9942 42.7611C26.0675 39.4784 20.9421 32.5047 20.8906 32.4346L20.7402 32.2304L22.668 30.3255L28.1857 34.1784C31.6439 29.7091 34.8655 26.6332 36.973 24.8305C39.3011 22.8391 40.7752 21.9479 40.8365 21.911L40.9062 21.8691H44.3036L43.7283 22.3816C36.4629 28.8528 28.5809 42.6195 28.5021 42.7579L28.2511 43.1987Z" fill="#0E7A60"/>
</svg>
